<?xml version="1.0" encoding="UTF-8"?>
<svg version="1.1" xmlns="http://www.w3.org/2000/svg" width="512" height="512">
<path d="M0 0 C168.96 0 337.92 0 512 0 C512 168.96 512 337.92 512 512 C343.04 512 174.08 512 0 512 C0 343.04 0 174.08 0 0 Z " fill="#000000" transform="translate(0,0)"/>
<path d="M0 0 C1.71872314 0.01341431 1.71872314 0.01341431 3.47216797 0.02709961 C24.10452716 0.30923404 43.79479753 5.13289794 62.69921875 13.5 C65.78225912 14.42926806 67.15981612 14.36107665 70.1875 13.25 C72.36910778 11.63689848 74.35879631 10.04439636 76.375 8.25 C83.73022293 1.84642018 83.73022293 1.84642018 90.1875 2.25 C92.90022404 4.96272404 92.45185283 6.41639115 92.47802734 10.21264648 C92.49078705 11.46411972 92.50354675 12.71559296 92.51669312 14.00498962 C92.51975033 15.37702277 92.52197833 16.74905798 92.5234375 18.12109375 C92.529862 19.52352537 92.53659009 20.92595563 92.54360962 22.3283844 C92.5555941 25.26981718 92.55928924 28.21113241 92.55810547 31.15258789 C92.55790217 34.92359907 92.58520917 38.69385752 92.61964989 42.46469021 C92.6418768 45.36175505 92.64594433 48.2586375 92.64488602 51.15577888 C92.64724816 52.54607807 92.65610622 53.93638181 92.67155075 55.32659721 C92.69112236 57.27028603 92.68287296 59.21419501 92.67333984 61.15795898 C92.67618988 62.26445297 92.67903992 63.37094696 92.68197632 64.51097107 C92.1875 67.25 92.1875 67.25 90.34072876 69.08778381 C87.23360658 70.76486883 85.65997085 71.02953427 82.1875 70.25 C80.02601686 67.87912318 78.67281674 65.07689315 77.1875 62.25 C65.12779157 40.3481114 50.10693315 28.13488207 26.0625 21.01171875 C9.81862169 16.70797382 -8.93534385 18.09833358 -23.66796875 26.265625 C-30.80005512 30.76637019 -35.47066386 37.1297871 -37.8125 45.25 C-38.71729269 50.71606719 -38.06922552 55.55764759 -35.32421875 60.40234375 C-27.36828384 70.1262642 -11.52937851 72.78244682 0.0625 75.25 C1.23490234 75.50563721 2.40730469 75.76127441 3.61523438 76.0246582 C10.95259843 77.6084089 18.30776791 79.06631382 25.6875 80.4375 C32.634089 81.73154217 39.43876353 83.12368577 46.1875 85.25 C46.83750977 85.44819336 47.48751953 85.64638672 48.15722656 85.85058594 C62.35104573 90.20285181 75.95690598 95.1761151 87.1875 105.25 C87.95835937 105.93964844 88.72921875 106.62929687 89.5234375 107.33984375 C100.4182496 117.63743193 105.92413123 129.67641672 106.42578125 144.62890625 C106.76352023 163.37872061 103.94299328 175.84638453 92.9375 191.4375 C76.09220421 208.66564342 53.93634863 217.87218348 29.9140625 218.453125 C4.27782764 218.73803216 -17.12788551 214.41057441 -40.7109375 204.44921875 C-45.79035105 202.27763951 -45.79035105 202.27763951 -50.953125 203.18359375 C-51.64921875 203.67988281 -52.3453125 204.17617188 -53.0625 204.6875 C-53.83851562 205.23664063 -54.61453125 205.78578125 -55.4140625 206.3515625 C-57.88504211 208.30741932 -60.14818644 210.39820015 -62.4375 212.5625 C-65.06268984 214.94487123 -67.12233324 216.78578925 -70.625 217.5625 C-73.8125 217.25 -73.8125 217.25 -75.98135376 215.15310669 C-78.20070891 211.63453202 -78.30826628 209.62501027 -78.29833984 205.48779297 C-78.30213654 204.82863892 -78.30593323 204.16948486 -78.30984497 203.49035645 C-78.31722094 201.32380735 -78.2959167 199.15861618 -78.2734375 196.9921875 C-78.2710517 195.48194537 -78.27014804 193.97170023 -78.2706604 192.4614563 C-78.26753777 189.30240191 -78.25101142 186.1438031 -78.22412109 182.98486328 C-78.19008345 178.93499486 -78.18249446 174.88562514 -78.18401146 170.83563042 C-78.18346786 167.71981036 -78.17250326 164.60409938 -78.15800858 161.48831558 C-78.15164441 159.99478098 -78.14770257 158.50123404 -78.14622116 157.00768661 C-78.14188726 154.9227157 -78.12438701 152.83827501 -78.10302734 150.75341797 C-78.09540375 149.56714813 -78.08778015 148.3808783 -78.07992554 147.15866089 C-77.8125 144.25 -77.8125 144.25 -75.8125 141.25 C-72.45345462 140.56680433 -70.97794793 140.27557249 -67.8125 141.25 C-64.92602234 143.86097871 -62.94288704 147.01218709 -60.8125 150.25 C-44.96866814 172.74432919 -25.41051182 190.27706736 2.1875 196.25 C16.2865573 198.45038191 32.67204068 199.16471248 46.1875 194.25 C47.48300781 193.83234375 47.48300781 193.83234375 48.8046875 193.40625 C57.23982879 190.43215763 64.05745988 186.11807312 68.1875 178 C71.57006804 170.43620202 72.37476322 163.51017978 70.125 155.4375 C62.20493317 142.40771263 44.8199757 139.09946698 30.95410156 135.70291138 C26.53523313 134.67910952 22.09988908 133.73402319 17.6618042 132.79760742 C-48.49505655 118.76353132 -48.49505655 118.76353132 -66.2421875 92.1015625 C-73.7531959 78.46216913 -76.09541947 62.01681923 -73.12890625 46.7265625 C-72.19768783 43.78221213 -71.11469081 41.04910174 -69.8125 38.25 C-69.17634766 36.85394531 -69.17634766 36.85394531 -68.52734375 35.4296875 C-60.27616812 18.92733624 -45.64796482 8.94883711 -28.5 3.125 C-18.97342426 0.8644566 -9.78471471 -0.08675168 0 0 Z " fill="#00FD00" transform="translate(128.8125,146.75)"/>
<path d="M0 0 C9.02943901 8.13267966 15.65697397 18.09990833 16.51953125 30.47265625 C16.73477565 41.40480579 15.24693167 50.10956822 7.4453125 58.29296875 C0.38521677 64.04044741 -7.71536648 65.86254296 -16.66796875 65.4765625 C-23.73766449 64.49893492 -29.23761467 61.68811477 -33.71875 56.0546875 C-37.59714447 50.35191669 -38.92441561 44.89372172 -37.71875 38.0546875 C-36.37656689 34.5232057 -34.6025716 31.32337254 -32.71875 28.0546875 C-27.80608492 19.55146965 -27.80608492 19.55146965 -27.71875 10.0546875 C-30.93794225 4.45698378 -35.50695945 0.75810379 -41.59375 -1.3203125 C-56.15218554 -4.23199961 -70.82921425 -1.82908339 -83.3203125 6.31640625 C-102.96475809 20.55383017 -111.32592216 41.73870172 -115.40625 64.96875 C-119.57146868 92.46877634 -118.78048036 126.17830262 -102.3984375 149.9140625 C-100.3436991 152.53265935 -98.14146905 154.77879991 -95.71875 157.0546875 C-95.71875 157.7146875 -95.71875 158.3746875 -95.71875 159.0546875 C-95.16445313 159.31507813 -94.61015625 159.57546875 -94.0390625 159.84375 C-91.42575607 161.20759679 -89.04521252 162.79299678 -86.59375 164.4296875 C-72.24024772 173.60369695 -54.35142833 175.68012758 -37.625 172.37109375 C-17.60125791 167.03290587 -2.10696953 153.65264148 8.28125 136.0546875 C13.12643828 128.20949922 13.12643828 128.20949922 14.28125 127.0546875 C17.66373111 126.74718922 19.92577376 126.91249701 23.09375 128.1796875 C25.28125 130.0546875 25.28125 130.0546875 26.125 132.67578125 C26.3282065 137.07012181 24.88856966 140.15519134 22.96875 143.9921875 C22.60990723 144.73001465 22.25106445 145.4678418 21.88134766 146.22802734 C18.01011363 153.96222706 13.34365111 161.05717061 8.28125 168.0546875 C7.79398438 168.74820313 7.30671875 169.44171875 6.8046875 170.15625 C-4.72631608 185.08288654 -24.20438143 194.41265285 -42.36743164 197.63354492 C-48.35117396 198.38549039 -54.34010851 198.3497961 -60.36083984 198.31542969 C-62.58328744 198.30473783 -64.80492102 198.31536656 -67.02734375 198.328125 C-97.68073855 198.35943462 -123.82915616 188.86259923 -145.62109375 167.16015625 C-165.17122123 146.1027627 -170.86766215 116.52991674 -170.0390625 88.6640625 C-168.60249122 58.87846228 -158.88157262 29.47073892 -136.92578125 8.328125 C-100.69215711 -24.5063368 -38.98362853 -32.69196696 0 0 Z " fill="#00FC00" transform="translate(435.71875,166.9453125)"/>
</svg>
